<svg width="212" height="174" viewBox="0 0 212 174" fill="none" xmlns="http://www.w3.org/2000/svg">
<path d="M71.3201 36.597C71.3201 16.385 87.7051 0 107.917 0C128.129 0 144.514 16.385 144.514 36.597C144.514 56.809 128.129 73.194 107.917 73.194C87.7051 73.194 71.3201 56.809 71.3201 36.597Z" fill="#EC095A"/>
<path d="M127.84 28.668V52.073C127.84 52.073 92.3672 54.297 89.6922 49.392C87.4522 45.285 86.9982 29.868 90.9982 28.928C98.8582 27.08 104.994 27.709 104.994 27.709C104.994 27.709 105.694 10.986 112.551 12.182C114.63 12.544 116.19 27.709 116.19 27.709L127.84 28.668Z" stroke="white" stroke-width="2" stroke-miterlimit="10" stroke-linecap="round" stroke-linejoin="round"/>
<path d="M121.333 28.117V52.371" stroke="white" stroke-width="2" stroke-miterlimit="10" stroke-linecap="round" stroke-linejoin="round"/>
<path d="M98.9841 36.025L88.4441 36.215" stroke="white" stroke-width="2" stroke-miterlimit="10" stroke-linecap="round" stroke-linejoin="round"/>
<path d="M98.9841 43.654L88.4441 43.844" stroke="white" stroke-width="2" stroke-miterlimit="10" stroke-linecap="round" stroke-linejoin="round"/>
<path d="M152.83 89.407C152.83 73.117 166.036 59.911 182.326 59.911C198.617 59.911 211.822 73.117 211.822 89.407C211.822 105.697 198.617 118.903 182.326 118.903C166.036 118.903 152.83 105.697 152.83 89.407Z" fill="#EC095A"/>
<path d="M166.269 93.849V74.985C166.269 74.985 194.859 73.193 197.015 77.146C198.821 80.456 199.186 92.882 195.962 93.64C189.627 95.129 184.682 94.622 184.682 94.622C184.682 94.622 184.118 108.101 178.592 107.137C176.916 106.845 175.659 94.622 175.659 94.622L166.269 93.849Z" stroke="white" stroke-width="2" stroke-miterlimit="10" stroke-linecap="round" stroke-linejoin="round"/>
<path d="M171.513 94.293V74.745" stroke="white" stroke-width="2" stroke-miterlimit="10" stroke-linecap="round" stroke-linejoin="round"/>
<path d="M189.526 87.92L198.021 87.767" stroke="white" stroke-width="2" stroke-miterlimit="10" stroke-linecap="round" stroke-linejoin="round"/>
<path d="M189.526 81.771L198.021 81.617" stroke="white" stroke-width="2" stroke-miterlimit="10" stroke-linecap="round" stroke-linejoin="round"/>
<path d="M103.954 150.396H129.375C135.924 150.396 141.233 145.087 141.233 138.538V94.896C141.233 88.347 135.924 83.038 129.375 83.038H13.037C6.48698 83.038 1.17798 88.347 1.17798 94.896V134.099C1.17798 138.78 3.62098 150.396 15.124 150.396C34.907 150.396 71.787 150.396 80.833 150.396" stroke="#EC095A" stroke-width="2" stroke-miterlimit="10" stroke-linecap="round" stroke-linejoin="round"/>
<path d="M103.954 150.396C103.954 150.396 102.271 156.85 108.934 163.413C115.596 169.976 125.54 172.163 125.54 172.163C125.54 172.163 104.132 171.955 96.703 169.081C80.747 162.907 80.833 150.396 80.833 150.396" stroke="#EC095A" stroke-width="2" stroke-miterlimit="10" stroke-linecap="round" stroke-linejoin="round"/>
<path d="M18.7461 131.777C18.7461 131.777 23.0021 125.989 32.9771 126.418C43.0801 126.852 47.9921 132.585 47.9921 132.585C47.9921 132.585 39.3901 138.102 32.8891 137.487C26.3881 136.872 18.7461 131.777 18.7461 131.777Z" fill="#EC095A"/>
<path d="M33.29 105.573C33.29 105.573 33.29 109.182 30.869 111.486C27.301 114.881 23.692 116.204 23.692 116.204L24.369 117.865C24.369 117.865 21.502 117.934 19.635 115.856C17.333 113.293 16.72 108.688 18.594 106.043C20.711 103.055 24.165 102.888 24.165 102.888C24.165 102.888 25.041 99.887 28.159 97.208C31.922 93.974 40.223 92.73 44.14 96.606C45.716 98.164 46.542 101.17 46.291 102.743C45.85 105.51 43.554 107.27 43.554 107.27C43.554 107.27 40.825 107.963 37.693 107.255C35.387 106.733 33.29 105.573 33.29 105.573Z" fill="#EC095A"/>
<path d="M23.5049 98.664L24.6909 104.03L23.5049 98.664Z" fill="#EC095A"/>
<path d="M26.3421 96.639C19.9131 99.012 14.7521 104.452 13.0441 111.618C10.3281 123.005 17.3581 134.438 28.7451 137.154C40.1331 139.869 51.5661 132.839 54.2821 121.452C56.1481 113.625 53.4101 105.776 47.8181 100.752" stroke="white" stroke-width="2" stroke-miterlimit="10" stroke-linecap="round" stroke-linejoin="round"/>
<path d="M44.3729 115.426C45.7609 109.607 42.1679 103.765 36.3489 102.377C30.5299 100.989 24.6879 104.582 23.2999 110.401C21.9129 116.22 25.5049 122.062 31.3239 123.45C37.1429 124.838 42.9849 121.245 44.3729 115.426Z" stroke="white" stroke-width="2" stroke-miterlimit="10" stroke-linecap="round" stroke-linejoin="round"/>
<path d="M33.1139 116.423C33.1799 115.751 32.6939 115.155 32.0299 115.09C31.3659 115.025 30.7739 115.517 30.7089 116.188C30.6429 116.859 31.1289 117.456 31.7929 117.521C32.4569 117.585 33.0489 117.094 33.1139 116.423Z" fill="#EC095A"/>
<path d="M36.2519 113.271C36.3139 112.634 35.8489 112.069 35.2129 112.007C34.5769 111.945 34.0109 112.41 33.9489 113.046C33.8869 113.682 34.3519 114.248 34.9879 114.31C35.6239 114.372 36.1899 113.907 36.2519 113.271Z" fill="white"/>
<path d="M43.0749 112.779C43.1369 112.143 42.6709 111.577 42.0349 111.515C41.3989 111.453 40.8339 111.918 40.7719 112.554C40.7099 113.19 41.1749 113.756 41.8109 113.818C42.4469 113.88 43.0129 113.415 43.0749 112.779Z" fill="white"/>
<path d="M38.1619 112.049L40.1389 115.953L37.7139 116.184" stroke="white" stroke-width="2" stroke-miterlimit="10" stroke-linecap="round" stroke-linejoin="round"/>
<path d="M35.2419 117.126C35.2419 117.126 35.6739 118.234 36.5469 118.551C37.1559 118.771 38.1529 118.233 38.1529 118.233" stroke="white" stroke-width="2" stroke-miterlimit="10" stroke-linecap="round" stroke-linejoin="round"/>
<path d="M66.8241 97.7409C66.9371 97.4609 67.3331 97.4609 67.4461 97.7409L68.6851 100.807C68.7331 100.926 68.8451 101.007 68.9731 101.016L72.2721 101.247C72.5731 101.268 72.6961 101.645 72.4641 101.839L69.9311 103.965C69.8331 104.047 69.7901 104.179 69.8211 104.303L70.6211 107.512C70.6941 107.805 70.3731 108.038 70.1171 107.878L67.3131 106.125C67.2041 106.057 67.0661 106.057 66.9571 106.125L64.1521 107.878C63.8961 108.038 63.5761 107.805 63.6491 107.512L64.4491 104.303C64.4801 104.179 64.4371 104.047 64.3391 103.965L61.8061 101.839C61.5741 101.645 61.6971 101.268 61.9981 101.247L65.2971 101.016C65.4251 101.007 65.5371 100.926 65.5851 100.807L66.8241 97.7409Z" fill="#EC095A"/>
<path d="M81.3539 97.7409C81.4669 97.4609 81.8639 97.4609 81.9769 97.7409L83.2159 100.807C83.2639 100.926 83.3759 101.007 83.5039 101.016L86.8029 101.247C87.1039 101.268 87.2259 101.645 86.9949 101.839L84.4619 103.965C84.3629 104.047 84.3209 104.179 84.3519 104.303L85.1519 107.512C85.2249 107.805 84.9039 108.038 84.6479 107.878L81.8439 106.125C81.7349 106.057 81.5969 106.057 81.4879 106.125L78.6829 107.878C78.4269 108.038 78.1059 107.805 78.1799 107.512L78.9799 104.303C79.0109 104.179 78.9679 104.047 78.8699 103.965L76.3359 101.839C76.1049 101.645 76.2269 101.268 76.5289 101.247L79.8279 101.016C79.9559 101.007 80.0669 100.926 80.1159 100.807L81.3539 97.7409Z" fill="#EC095A"/>
<path d="M95.8849 97.7409C95.9979 97.4609 96.3949 97.4609 96.5079 97.7409L97.7469 100.807C97.7949 100.926 97.9059 101.007 98.0349 101.016L101.333 101.247C101.635 101.268 101.757 101.645 101.526 101.839L98.9929 103.965C98.8939 104.047 98.8509 104.179 98.8829 104.303L99.6829 107.512C99.7559 107.805 99.4349 108.038 99.1789 107.878L96.3739 106.125C96.2659 106.057 96.1269 106.057 96.0189 106.125L93.2139 107.878C92.9579 108.038 92.6369 107.805 92.7099 107.512L93.5099 104.303C93.5419 104.179 93.4989 104.047 93.3999 103.965L90.8669 101.839C90.6359 101.645 90.7579 101.268 91.0599 101.247L94.3589 101.016C94.4869 101.007 94.5979 100.926 94.6459 100.807L95.8849 97.7409Z" fill="#EC095A"/>
<path d="M110.416 97.7409C110.529 97.4609 110.926 97.4609 111.039 97.7409L112.277 100.807C112.326 100.926 112.437 101.007 112.565 101.016L115.864 101.247C116.166 101.268 116.288 101.645 116.057 101.839L113.523 103.965C113.425 104.047 113.382 104.179 113.413 104.303L114.213 107.512C114.287 107.805 113.966 108.038 113.71 107.878L110.905 106.125C110.796 106.057 110.658 106.057 110.549 106.125L107.745 107.878C107.489 108.038 107.168 107.805 107.241 107.512L108.041 104.303C108.072 104.179 108.03 104.047 107.931 103.965L105.398 101.839C105.167 101.645 105.289 101.268 105.59 101.247L108.889 101.016C109.017 101.007 109.129 100.926 109.177 100.807L110.416 97.7409Z" fill="#7A173B"/>
<path d="M124.947 97.7409C125.06 97.4609 125.456 97.4609 125.569 97.7409L126.808 100.807C126.856 100.926 126.968 101.007 127.096 101.016L130.395 101.247C130.696 101.268 130.819 101.645 130.588 101.839L128.054 103.965C127.956 104.047 127.913 104.179 127.944 104.303L128.744 107.512C128.817 107.805 128.497 108.038 128.241 107.878L125.436 106.125C125.327 106.057 125.189 106.057 125.08 106.125L122.276 107.878C122.02 108.038 121.699 107.805 121.772 107.512L122.572 104.303C122.603 104.179 122.56 104.047 122.462 103.965L119.929 101.839C119.697 101.645 119.82 101.268 120.121 101.247L123.42 101.016C123.548 101.007 123.66 100.926 123.708 100.807L124.947 97.7409Z" fill="#7A173B"/>
<path d="M67.135 118.409H125.692" stroke="white" stroke-width="2" stroke-miterlimit="10" stroke-linecap="round" stroke-linejoin="round"/>
<path d="M67.135 125.566H125.692" stroke="white" stroke-width="2" stroke-miterlimit="10" stroke-linecap="round" stroke-linejoin="round"/>
<path d="M67.135 132.723H125.692" stroke="white" stroke-width="2" stroke-miterlimit="10" stroke-linecap="round" stroke-linejoin="round"/>
</svg>
